<mxfile host="app.diagrams.net" agent="Mozilla/5.0 (Windows NT 10.0; Win64; x64) AppleWebKit/537.36 (KHTML, like Gecko) Chrome/139.0.0.0 Safari/537.36 Edg/139.0.0.0" version="28.1.2">
  <diagram name="第 1 页" id="CDt5LHCYh--jGgWt5ZUJ">
    <mxGraphModel dx="2050" dy="1108" grid="1" gridSize="10" guides="1" tooltips="1" connect="1" arrows="1" fold="1" page="1" pageScale="1" pageWidth="827" pageHeight="1169" math="0" shadow="0">
      <root>
        <mxCell id="0" />
        <mxCell id="1" parent="0" />
        <mxCell id="wSN1zOAFKdJWx-c6P5dy-1" value="" style="rounded=0;whiteSpace=wrap;html=1;" parent="1" vertex="1">
          <mxGeometry x="246" y="887" width="730" height="470" as="geometry" />
        </mxCell>
        <mxCell id="wSN1zOAFKdJWx-c6P5dy-3" value="分类代码    " style="fillColor=none;strokeColor=none;align=left;fontSize=14;fontColor=#212529;" parent="1" vertex="1">
          <mxGeometry x="326" y="977" width="65" height="30" as="geometry" />
        </mxCell>
        <mxCell id="wSN1zOAFKdJWx-c6P5dy-4" value="hydrantV2" style="html=1;shadow=0;dashed=0;shape=mxgraph.bootstrap.rrect;rSize=5;fillColor=none;strokeColor=#999999;align=left;spacing=15;fontSize=14;fontColor=#6C767D;" parent="1" vertex="1">
          <mxGeometry x="406" y="977" width="160" height="30" as="geometry" />
        </mxCell>
        <mxCell id="wSN1zOAFKdJWx-c6P5dy-19" value="确认" style="html=1;shadow=0;dashed=0;shape=mxgraph.bootstrap.rrect;rSize=5;fillColor=#0085FC;strokeColor=none;align=center;fontSize=14;fontColor=#FFFFFF;" parent="1" vertex="1">
          <mxGeometry x="796" y="1312" width="60" height="30" as="geometry" />
        </mxCell>
        <mxCell id="wSN1zOAFKdJWx-c6P5dy-20" value="分类名称    " style="fillColor=none;strokeColor=none;align=left;fontSize=14;fontColor=#212529;" parent="1" vertex="1">
          <mxGeometry x="636" y="977" width="65" height="30" as="geometry" />
        </mxCell>
        <mxCell id="wSN1zOAFKdJWx-c6P5dy-21" value="智能消火栓2.0" style="html=1;shadow=0;dashed=0;shape=mxgraph.bootstrap.rrect;rSize=5;fillColor=none;strokeColor=#999999;align=left;spacing=15;fontSize=14;fontColor=#6C767D;" parent="1" vertex="1">
          <mxGeometry x="716" y="977" width="160" height="30" as="geometry" />
        </mxCell>
        <mxCell id="wSN1zOAFKdJWx-c6P5dy-22" value="分组名称" style="fillColor=none;strokeColor=none;align=left;fontSize=14;fontColor=#212529;" parent="1" vertex="1">
          <mxGeometry x="326" y="1037" width="65" height="30" as="geometry" />
        </mxCell>
        <mxCell id="wSN1zOAFKdJWx-c6P5dy-23" value="消火栓类" style="html=1;shadow=0;dashed=0;shape=mxgraph.bootstrap.rrect;rSize=5;fillColor=none;strokeColor=#999999;align=left;spacing=15;fontSize=14;fontColor=#6C767D;" parent="1" vertex="1">
          <mxGeometry x="406" y="1037" width="160" height="30" as="geometry" />
        </mxCell>
        <mxCell id="wSN1zOAFKdJWx-c6P5dy-26" value="智能消火栓" style="html=1;shadow=0;dashed=0;shape=mxgraph.bootstrap.rrect;rSize=5;strokeColor=#505050;strokeWidth=1;fillColor=#ffffff;fontColor=#777777;whiteSpace=wrap;align=left;verticalAlign=middle;fontStyle=0;fontSize=18;spacing=20;" parent="1" vertex="1">
          <mxGeometry x="711" y="1037" width="170" height="35" as="geometry" />
        </mxCell>
        <mxCell id="wSN1zOAFKdJWx-c6P5dy-27" value="" style="shape=triangle;direction=south;fillColor=#495057;strokeColor=none;perimeter=none;" parent="wSN1zOAFKdJWx-c6P5dy-26" vertex="1">
          <mxGeometry x="1" y="0.5" width="10" height="5" relative="1" as="geometry">
            <mxPoint x="-17" y="-2.5" as="offset" />
          </mxGeometry>
        </mxCell>
        <mxCell id="wSN1zOAFKdJWx-c6P5dy-31" value="" style="swimlane;fontStyle=0;childLayout=stackLayout;horizontal=1;startSize=0;horizontalStack=0;resizeParent=1;resizeParentMax=0;resizeLast=0;collapsible=0;marginBottom=0;whiteSpace=wrap;html=1;strokeColor=none;fillColor=none;" parent="1" vertex="1">
          <mxGeometry x="712" y="1073" width="170" height="150" as="geometry" />
        </mxCell>
        <mxCell id="wSN1zOAFKdJWx-c6P5dy-32" value="噪声检测仪" style="text;strokeColor=#DFDFDF;fillColor=#FFFFFF;align=left;verticalAlign=middle;spacingLeft=10;spacingRight=10;overflow=hidden;points=[[0,0.5],[1,0.5]];portConstraint=eastwest;rotatable=0;whiteSpace=wrap;html=1;shape=mxgraph.bootstrap.topButton;rSize=5;fontColor=#000000;" parent="wSN1zOAFKdJWx-c6P5dy-31" vertex="1">
          <mxGeometry width="170" height="30" as="geometry" />
        </mxCell>
        <mxCell id="wSN1zOAFKdJWx-c6P5dy-36" value="智能井盖" style="text;strokeColor=#DFDFDF;fillColor=#FFFFFF;align=left;verticalAlign=middle;spacingLeft=10;spacingRight=10;overflow=hidden;points=[[0,0.5],[1,0.5]];portConstraint=eastwest;rotatable=0;whiteSpace=wrap;html=1;shape=mxgraph.bootstrap.bottomButton;rSize=5;fontColor=#000000;" parent="wSN1zOAFKdJWx-c6P5dy-31" vertex="1">
          <mxGeometry y="30" width="170" height="30" as="geometry" />
        </mxCell>
        <mxCell id="wSN1zOAFKdJWx-c6P5dy-35" value="智能水表" style="text;strokeColor=#DFDFDF;fillColor=#FFFFFF;align=left;verticalAlign=middle;spacingLeft=10;spacingRight=10;overflow=hidden;points=[[0,0.5],[1,0.5]];portConstraint=eastwest;rotatable=0;whiteSpace=wrap;html=1;rSize=5;fontColor=#000000;" parent="wSN1zOAFKdJWx-c6P5dy-31" vertex="1">
          <mxGeometry y="60" width="170" height="30" as="geometry" />
        </mxCell>
        <mxCell id="wSN1zOAFKdJWx-c6P5dy-34" value="压力" style="text;strokeColor=#DFDFDF;fillColor=#FFFFFF;align=left;verticalAlign=middle;spacingLeft=10;spacingRight=10;overflow=hidden;points=[[0,0.5],[1,0.5]];portConstraint=eastwest;rotatable=0;whiteSpace=wrap;html=1;rSize=5;fontColor=#000000;" parent="wSN1zOAFKdJWx-c6P5dy-31" vertex="1">
          <mxGeometry y="90" width="170" height="30" as="geometry" />
        </mxCell>
        <mxCell id="wSN1zOAFKdJWx-c6P5dy-33" value="RTU" style="text;strokeColor=#DFDFDF;fillColor=#FFFFFF;align=left;verticalAlign=middle;spacingLeft=10;spacingRight=10;overflow=hidden;points=[[0,0.5],[1,0.5]];portConstraint=eastwest;rotatable=0;whiteSpace=wrap;html=1;rSize=5;fontColor=#000000;" parent="wSN1zOAFKdJWx-c6P5dy-31" vertex="1">
          <mxGeometry y="120" width="170" height="30" as="geometry" />
        </mxCell>
        <mxCell id="wSN1zOAFKdJWx-c6P5dy-37" value="设备类型" style="fillColor=none;strokeColor=none;align=left;fontSize=14;fontColor=#212529;" parent="1" vertex="1">
          <mxGeometry x="636" y="1037" width="65" height="30" as="geometry" />
        </mxCell>
        <mxCell id="wSN1zOAFKdJWx-c6P5dy-41" value="设备型号" style="fillColor=none;strokeColor=none;align=left;fontSize=14;fontColor=#212529;" parent="1" vertex="1">
          <mxGeometry x="326" y="1097" width="65" height="30" as="geometry" />
        </mxCell>
        <mxCell id="wSN1zOAFKdJWx-c6P5dy-50" value="取消" style="html=1;shadow=0;dashed=0;shape=mxgraph.bootstrap.rrect;rSize=5;strokeColor=#6C767D;strokeWidth=1;fillColor=none;fontColor=#6C767D;whiteSpace=wrap;align=center;verticalAlign=middle;spacingLeft=0;fontStyle=0;fontSize=16;spacing=5;" parent="1" vertex="1">
          <mxGeometry x="886" y="1312" width="70" height="30" as="geometry" />
        </mxCell>
        <mxCell id="wSN1zOAFKdJWx-c6P5dy-53" value="" style="endArrow=none;html=1;rounded=0;strokeColor=#A8A8A8;" parent="1" edge="1">
          <mxGeometry width="50" height="50" relative="1" as="geometry">
            <mxPoint x="286" y="1297" as="sourcePoint" />
            <mxPoint x="956" y="1297" as="targetPoint" />
          </mxGeometry>
        </mxCell>
        <mxCell id="wSN1zOAFKdJWx-c6P5dy-54" value="新增/修改" style="text;html=1;align=center;verticalAlign=middle;whiteSpace=wrap;rounded=0;fontStyle=1;fontSize=17;" parent="1" vertex="1">
          <mxGeometry x="276" y="907" width="94" height="30" as="geometry" />
        </mxCell>
        <mxCell id="wSN1zOAFKdJWx-c6P5dy-55" value="HJJY-FH-200" style="html=1;shadow=0;dashed=0;shape=mxgraph.bootstrap.checkbox2;labelPosition=right;verticalLabelPosition=middle;align=left;verticalAlign=middle;gradientColor=#DEDEDE;fillColor=#EDEDED;checked=1;spacing=5;checkedFill=#0085FC;checkedStroke=#ffffff;sketch=0;" parent="1" vertex="1">
          <mxGeometry x="406" y="1147" width="10" height="10" as="geometry" />
        </mxCell>
        <mxCell id="wSN1zOAFKdJWx-c6P5dy-57" value="HJJY-FH-210" style="html=1;shadow=0;dashed=0;shape=mxgraph.bootstrap.checkbox2;labelPosition=right;verticalLabelPosition=middle;align=left;verticalAlign=middle;gradientColor=#DEDEDE;fillColor=#EDEDED;checked=1;spacing=5;checkedFill=#0085FC;checkedStroke=#ffffff;sketch=0;" parent="1" vertex="1">
          <mxGeometry x="406" y="1177" width="10" height="10" as="geometry" />
        </mxCell>
        <mxCell id="wSN1zOAFKdJWx-c6P5dy-59" value="HJJY-FH-100" style="html=1;shadow=0;dashed=0;shape=mxgraph.bootstrap.checkbox2;labelPosition=right;verticalLabelPosition=middle;align=left;verticalAlign=middle;gradientColor=#DEDEDE;fillColor=#EDEDED;checked=0;spacing=5;fontColor=default;checkedFill=#0085FC;checkedStroke=#ffffff;sketch=0;" parent="1" vertex="1">
          <mxGeometry x="406" y="1117" width="10" height="10" as="geometry" />
        </mxCell>
        <mxCell id="wSN1zOAFKdJWx-c6P5dy-61" value="" style="rounded=0;whiteSpace=wrap;html=1;" parent="1" vertex="1">
          <mxGeometry x="100" y="70" width="1230" height="660" as="geometry" />
        </mxCell>
        <mxCell id="wSN1zOAFKdJWx-c6P5dy-62" value="" style="html=1;shadow=0;dashed=0;fillColor=#F8F9FA;strokeColor=none;fontSize=16;fontColor=#181819;align=left;spacing=15;" parent="1" vertex="1">
          <mxGeometry x="150" y="90" width="1130" height="60" as="geometry" />
        </mxCell>
        <mxCell id="wSN1zOAFKdJWx-c6P5dy-63" value="" style="html=1;shadow=0;dashed=0;shape=mxgraph.bootstrap.rrect;rSize=5;fontSize=14;fontColor=#6C767D;strokeColor=#CED4DA;fillColor=#ffffff;align=left;spacing=10;" parent="wSN1zOAFKdJWx-c6P5dy-62" vertex="1">
          <mxGeometry width="180" height="40" relative="1" as="geometry">
            <mxPoint x="103" y="10" as="offset" />
          </mxGeometry>
        </mxCell>
        <mxCell id="wSN1zOAFKdJWx-c6P5dy-64" value="查询" style="html=1;shadow=0;dashed=0;shape=mxgraph.bootstrap.rrect;rSize=5;fontSize=14;fontColor=#33A64C;strokeColor=#33A64C;fillColor=none;" parent="wSN1zOAFKdJWx-c6P5dy-62" vertex="1">
          <mxGeometry width="70" height="40" relative="1" as="geometry">
            <mxPoint x="1040" y="10" as="offset" />
          </mxGeometry>
        </mxCell>
        <mxCell id="wSN1zOAFKdJWx-c6P5dy-65" value="分类名称" style="fillColor=none;strokeColor=none;align=left;fontSize=14;fontColor=#212529;" parent="wSN1zOAFKdJWx-c6P5dy-62" vertex="1">
          <mxGeometry x="34.586855092486" y="15" width="56.937984496124024" height="30" as="geometry" />
        </mxCell>
        <mxCell id="wSN1zOAFKdJWx-c6P5dy-66" value="" style="html=1;shadow=0;dashed=0;shape=mxgraph.bootstrap.rrect;rSize=5;fontSize=14;fontColor=#6C767D;strokeColor=#CED4DA;fillColor=#ffffff;align=left;spacing=10;" parent="wSN1zOAFKdJWx-c6P5dy-62" vertex="1">
          <mxGeometry x="429.5022650649023" y="10" width="157.67441860465115" height="40" as="geometry" />
        </mxCell>
        <mxCell id="wSN1zOAFKdJWx-c6P5dy-67" value="分组名称" style="fillColor=none;strokeColor=none;align=left;fontSize=14;fontColor=#212529;" parent="wSN1zOAFKdJWx-c6P5dy-62" vertex="1">
          <mxGeometry x="339.99566670739216" y="15" width="56.937984496124024" height="30" as="geometry" />
        </mxCell>
        <mxCell id="wSN1zOAFKdJWx-c6P5dy-179" value="2" style="strokeColor=none;fillColor=none;fontSize=10;fontColor=#596780;align=left;html=1;" parent="1" vertex="1">
          <mxGeometry x="236" y="880" width="40" height="20" as="geometry" />
        </mxCell>
        <mxCell id="wSN1zOAFKdJWx-c6P5dy-180" value="14" style="strokeColor=none;fillColor=none;fontSize=10;fontColor=#596780;align=right;html=1;" parent="1" vertex="1">
          <mxGeometry x="276" y="880" width="40" height="20" as="geometry" />
        </mxCell>
        <mxCell id="wSN1zOAFKdJWx-c6P5dy-192" value="" style="childLayout=tableLayout;recursiveResize=0;shadow=0;fillColor=none;" parent="1" vertex="1">
          <mxGeometry x="150" y="240" width="490" height="140" as="geometry" />
        </mxCell>
        <mxCell id="wSN1zOAFKdJWx-c6P5dy-193" value="" style="shape=tableRow;horizontal=0;startSize=0;swimlaneHead=0;swimlaneBody=0;top=0;left=0;bottom=0;right=0;dropTarget=0;collapsible=0;recursiveResize=0;expand=0;fontStyle=0;fillColor=none;strokeColor=inherit;" parent="wSN1zOAFKdJWx-c6P5dy-192" vertex="1">
          <mxGeometry width="490" height="47" as="geometry" />
        </mxCell>
        <mxCell id="wSN1zOAFKdJWx-c6P5dy-194" value="ID" style="connectable=0;recursiveResize=0;strokeColor=inherit;fillColor=none;align=center;whiteSpace=wrap;html=1;" parent="wSN1zOAFKdJWx-c6P5dy-193" vertex="1">
          <mxGeometry width="163" height="47" as="geometry">
            <mxRectangle width="163" height="47" as="alternateBounds" />
          </mxGeometry>
        </mxCell>
        <mxCell id="wSN1zOAFKdJWx-c6P5dy-195" value="分类代码" style="connectable=0;recursiveResize=0;strokeColor=inherit;fillColor=none;align=center;whiteSpace=wrap;html=1;" parent="wSN1zOAFKdJWx-c6P5dy-193" vertex="1">
          <mxGeometry x="163" width="164" height="47" as="geometry">
            <mxRectangle width="164" height="47" as="alternateBounds" />
          </mxGeometry>
        </mxCell>
        <mxCell id="wSN1zOAFKdJWx-c6P5dy-196" value="分类名称" style="connectable=0;recursiveResize=0;strokeColor=inherit;fillColor=none;align=center;whiteSpace=wrap;html=1;" parent="wSN1zOAFKdJWx-c6P5dy-193" vertex="1">
          <mxGeometry x="327" width="163" height="47" as="geometry">
            <mxRectangle width="163" height="47" as="alternateBounds" />
          </mxGeometry>
        </mxCell>
        <mxCell id="wSN1zOAFKdJWx-c6P5dy-197" style="shape=tableRow;horizontal=0;startSize=0;swimlaneHead=0;swimlaneBody=0;top=0;left=0;bottom=0;right=0;dropTarget=0;collapsible=0;recursiveResize=0;expand=0;fontStyle=0;fillColor=none;strokeColor=inherit;" parent="wSN1zOAFKdJWx-c6P5dy-192" vertex="1">
          <mxGeometry y="47" width="490" height="46" as="geometry" />
        </mxCell>
        <mxCell id="wSN1zOAFKdJWx-c6P5dy-198" value="1043053495435" style="connectable=0;recursiveResize=0;strokeColor=inherit;fillColor=none;align=center;whiteSpace=wrap;html=1;" parent="wSN1zOAFKdJWx-c6P5dy-197" vertex="1">
          <mxGeometry width="163" height="46" as="geometry">
            <mxRectangle width="163" height="46" as="alternateBounds" />
          </mxGeometry>
        </mxCell>
        <mxCell id="wSN1zOAFKdJWx-c6P5dy-199" value="hydrantV1" style="connectable=0;recursiveResize=0;strokeColor=inherit;fillColor=none;align=center;whiteSpace=wrap;html=1;" parent="wSN1zOAFKdJWx-c6P5dy-197" vertex="1">
          <mxGeometry x="163" width="164" height="46" as="geometry">
            <mxRectangle width="164" height="46" as="alternateBounds" />
          </mxGeometry>
        </mxCell>
        <mxCell id="wSN1zOAFKdJWx-c6P5dy-200" value="智能消火栓1.0" style="connectable=0;recursiveResize=0;strokeColor=inherit;fillColor=none;align=center;whiteSpace=wrap;html=1;" parent="wSN1zOAFKdJWx-c6P5dy-197" vertex="1">
          <mxGeometry x="327" width="163" height="46" as="geometry">
            <mxRectangle width="163" height="46" as="alternateBounds" />
          </mxGeometry>
        </mxCell>
        <mxCell id="wSN1zOAFKdJWx-c6P5dy-201" style="shape=tableRow;horizontal=0;startSize=0;swimlaneHead=0;swimlaneBody=0;top=0;left=0;bottom=0;right=0;dropTarget=0;collapsible=0;recursiveResize=0;expand=0;fontStyle=0;fillColor=none;strokeColor=inherit;" parent="wSN1zOAFKdJWx-c6P5dy-192" vertex="1">
          <mxGeometry y="93" width="490" height="47" as="geometry" />
        </mxCell>
        <mxCell id="wSN1zOAFKdJWx-c6P5dy-202" value="1043053495436" style="connectable=0;recursiveResize=0;strokeColor=inherit;fillColor=none;align=center;whiteSpace=wrap;html=1;" parent="wSN1zOAFKdJWx-c6P5dy-201" vertex="1">
          <mxGeometry width="163" height="47" as="geometry">
            <mxRectangle width="163" height="47" as="alternateBounds" />
          </mxGeometry>
        </mxCell>
        <mxCell id="wSN1zOAFKdJWx-c6P5dy-203" value="hydrantV2" style="connectable=0;recursiveResize=0;strokeColor=inherit;fillColor=none;align=center;whiteSpace=wrap;html=1;" parent="wSN1zOAFKdJWx-c6P5dy-201" vertex="1">
          <mxGeometry x="163" width="164" height="47" as="geometry">
            <mxRectangle width="164" height="47" as="alternateBounds" />
          </mxGeometry>
        </mxCell>
        <mxCell id="wSN1zOAFKdJWx-c6P5dy-204" value="智能消火栓2.0" style="connectable=0;recursiveResize=0;strokeColor=inherit;fillColor=none;align=center;whiteSpace=wrap;html=1;" parent="wSN1zOAFKdJWx-c6P5dy-201" vertex="1">
          <mxGeometry x="327" width="163" height="47" as="geometry">
            <mxRectangle width="163" height="47" as="alternateBounds" />
          </mxGeometry>
        </mxCell>
        <mxCell id="wSN1zOAFKdJWx-c6P5dy-205" value="" style="childLayout=tableLayout;recursiveResize=0;shadow=0;fillColor=none;" parent="1" vertex="1">
          <mxGeometry x="640" y="240" width="490" height="140" as="geometry" />
        </mxCell>
        <mxCell id="wSN1zOAFKdJWx-c6P5dy-206" value="" style="shape=tableRow;horizontal=0;startSize=0;swimlaneHead=0;swimlaneBody=0;top=0;left=0;bottom=0;right=0;dropTarget=0;collapsible=0;recursiveResize=0;expand=0;fontStyle=0;fillColor=none;strokeColor=inherit;" parent="wSN1zOAFKdJWx-c6P5dy-205" vertex="1">
          <mxGeometry width="490" height="47" as="geometry" />
        </mxCell>
        <mxCell id="wSN1zOAFKdJWx-c6P5dy-207" value="分组名称" style="connectable=0;recursiveResize=0;strokeColor=inherit;fillColor=none;align=center;whiteSpace=wrap;html=1;" parent="wSN1zOAFKdJWx-c6P5dy-206" vertex="1">
          <mxGeometry width="163" height="47" as="geometry">
            <mxRectangle width="163" height="47" as="alternateBounds" />
          </mxGeometry>
        </mxCell>
        <mxCell id="wSN1zOAFKdJWx-c6P5dy-208" value="设备类型" style="connectable=0;recursiveResize=0;strokeColor=inherit;fillColor=none;align=center;whiteSpace=wrap;html=1;" parent="wSN1zOAFKdJWx-c6P5dy-206" vertex="1">
          <mxGeometry x="163" width="164" height="47" as="geometry">
            <mxRectangle width="164" height="47" as="alternateBounds" />
          </mxGeometry>
        </mxCell>
        <mxCell id="wSN1zOAFKdJWx-c6P5dy-209" value="型号" style="connectable=0;recursiveResize=0;strokeColor=inherit;fillColor=none;align=center;whiteSpace=wrap;html=1;" parent="wSN1zOAFKdJWx-c6P5dy-206" vertex="1">
          <mxGeometry x="327" width="163" height="47" as="geometry">
            <mxRectangle width="163" height="47" as="alternateBounds" />
          </mxGeometry>
        </mxCell>
        <mxCell id="wSN1zOAFKdJWx-c6P5dy-210" style="shape=tableRow;horizontal=0;startSize=0;swimlaneHead=0;swimlaneBody=0;top=0;left=0;bottom=0;right=0;dropTarget=0;collapsible=0;recursiveResize=0;expand=0;fontStyle=0;fillColor=none;strokeColor=inherit;" parent="wSN1zOAFKdJWx-c6P5dy-205" vertex="1">
          <mxGeometry y="47" width="490" height="46" as="geometry" />
        </mxCell>
        <mxCell id="wSN1zOAFKdJWx-c6P5dy-211" value="消火栓类" style="connectable=0;recursiveResize=0;strokeColor=inherit;fillColor=none;align=center;whiteSpace=wrap;html=1;" parent="wSN1zOAFKdJWx-c6P5dy-210" vertex="1">
          <mxGeometry width="163" height="46" as="geometry">
            <mxRectangle width="163" height="46" as="alternateBounds" />
          </mxGeometry>
        </mxCell>
        <mxCell id="wSN1zOAFKdJWx-c6P5dy-212" value="智能消火栓" style="connectable=0;recursiveResize=0;strokeColor=inherit;fillColor=none;align=center;whiteSpace=wrap;html=1;" parent="wSN1zOAFKdJWx-c6P5dy-210" vertex="1">
          <mxGeometry x="163" width="164" height="46" as="geometry">
            <mxRectangle width="164" height="46" as="alternateBounds" />
          </mxGeometry>
        </mxCell>
        <mxCell id="wSN1zOAFKdJWx-c6P5dy-213" value="HJJY-FH-100" style="connectable=0;recursiveResize=0;strokeColor=inherit;fillColor=none;align=center;whiteSpace=wrap;html=1;" parent="wSN1zOAFKdJWx-c6P5dy-210" vertex="1">
          <mxGeometry x="327" width="163" height="46" as="geometry">
            <mxRectangle width="163" height="46" as="alternateBounds" />
          </mxGeometry>
        </mxCell>
        <mxCell id="wSN1zOAFKdJWx-c6P5dy-214" style="shape=tableRow;horizontal=0;startSize=0;swimlaneHead=0;swimlaneBody=0;top=0;left=0;bottom=0;right=0;dropTarget=0;collapsible=0;recursiveResize=0;expand=0;fontStyle=0;fillColor=none;strokeColor=inherit;" parent="wSN1zOAFKdJWx-c6P5dy-205" vertex="1">
          <mxGeometry y="93" width="490" height="47" as="geometry" />
        </mxCell>
        <mxCell id="wSN1zOAFKdJWx-c6P5dy-215" value="消火栓类" style="connectable=0;recursiveResize=0;strokeColor=inherit;fillColor=none;align=center;whiteSpace=wrap;html=1;" parent="wSN1zOAFKdJWx-c6P5dy-214" vertex="1">
          <mxGeometry width="163" height="47" as="geometry">
            <mxRectangle width="163" height="47" as="alternateBounds" />
          </mxGeometry>
        </mxCell>
        <mxCell id="wSN1zOAFKdJWx-c6P5dy-216" value="智能消火栓" style="connectable=0;recursiveResize=0;strokeColor=inherit;fillColor=none;align=center;whiteSpace=wrap;html=1;" parent="wSN1zOAFKdJWx-c6P5dy-214" vertex="1">
          <mxGeometry x="163" width="164" height="47" as="geometry">
            <mxRectangle width="164" height="47" as="alternateBounds" />
          </mxGeometry>
        </mxCell>
        <mxCell id="wSN1zOAFKdJWx-c6P5dy-217" value="HJJY-FH-200、HJJY-FH-210" style="connectable=0;recursiveResize=0;strokeColor=inherit;fillColor=none;align=center;whiteSpace=wrap;html=1;" parent="wSN1zOAFKdJWx-c6P5dy-214" vertex="1">
          <mxGeometry x="327" width="163" height="47" as="geometry">
            <mxRectangle width="163" height="47" as="alternateBounds" />
          </mxGeometry>
        </mxCell>
        <mxCell id="wSN1zOAFKdJWx-c6P5dy-231" value="" style="swimlane;shape=mxgraph.bootstrap.anchor;strokeColor=#DEE2E6;fillColor=#ffffff;fontColor=#0085FC;fontStyle=0;childLayout=stackLayout;horizontal=0;startSize=0;horizontalStack=1;resizeParent=1;resizeParentMax=0;resizeLast=0;collapsible=0;marginBottom=0;whiteSpace=wrap;html=1;" parent="1" vertex="1">
          <mxGeometry x="1120" y="660" width="150" height="30" as="geometry" />
        </mxCell>
        <mxCell id="wSN1zOAFKdJWx-c6P5dy-232" value="&lt;&lt;" style="text;strokeColor=inherit;align=center;verticalAlign=middle;spacingLeft=5;spacingRight=5;overflow=hidden;points=[[0,0.5],[1,0.5]];portConstraint=eastwest;rotatable=0;whiteSpace=wrap;html=1;shape=mxgraph.bootstrap.leftButton;rSize=5;fillColor=inherit;fontColor=inherit;fontSize=14;" parent="wSN1zOAFKdJWx-c6P5dy-231" vertex="1">
          <mxGeometry width="30" height="30" as="geometry" />
        </mxCell>
        <mxCell id="wSN1zOAFKdJWx-c6P5dy-233" value="1" style="text;strokeColor=inherit;align=center;verticalAlign=middle;spacingLeft=5;spacingRight=5;overflow=hidden;points=[[0,0.5],[1,0.5]];portConstraint=eastwest;rotatable=0;whiteSpace=wrap;html=1;rSize=5;fillColor=inherit;fontColor=inherit;fontSize=14;" parent="wSN1zOAFKdJWx-c6P5dy-231" vertex="1">
          <mxGeometry x="30" width="30" height="30" as="geometry" />
        </mxCell>
        <mxCell id="wSN1zOAFKdJWx-c6P5dy-234" value="2" style="text;strokeColor=inherit;align=center;verticalAlign=middle;spacingLeft=5;spacingRight=5;overflow=hidden;points=[[0,0.5],[1,0.5]];portConstraint=eastwest;rotatable=0;whiteSpace=wrap;html=1;rSize=5;fillColor=inherit;fontColor=inherit;fontSize=14;" parent="wSN1zOAFKdJWx-c6P5dy-231" vertex="1">
          <mxGeometry x="60" width="30" height="30" as="geometry" />
        </mxCell>
        <mxCell id="wSN1zOAFKdJWx-c6P5dy-235" value="3" style="text;strokeColor=inherit;align=center;verticalAlign=middle;spacingLeft=5;spacingRight=5;overflow=hidden;points=[[0,0.5],[1,0.5]];portConstraint=eastwest;rotatable=0;whiteSpace=wrap;html=1;rSize=5;fillColor=inherit;fontColor=inherit;fontSize=14;" parent="wSN1zOAFKdJWx-c6P5dy-231" vertex="1">
          <mxGeometry x="90" width="30" height="30" as="geometry" />
        </mxCell>
        <mxCell id="wSN1zOAFKdJWx-c6P5dy-236" value="&gt;&gt;" style="text;strokeColor=inherit;align=center;verticalAlign=middle;spacingLeft=5;spacingRight=5;overflow=hidden;points=[[0,0.5],[1,0.5]];portConstraint=eastwest;rotatable=0;whiteSpace=wrap;html=1;shape=mxgraph.bootstrap.rightButton;rSize=5;fillColor=inherit;fontColor=inherit;fontSize=14;" parent="wSN1zOAFKdJWx-c6P5dy-231" vertex="1">
          <mxGeometry x="120" width="30" height="30" as="geometry" />
        </mxCell>
        <mxCell id="wSN1zOAFKdJWx-c6P5dy-241" value="操作" style="rounded=0;whiteSpace=wrap;html=1;" parent="1" vertex="1">
          <mxGeometry x="1130" y="240" width="150" height="47" as="geometry" />
        </mxCell>
        <mxCell id="wSN1zOAFKdJWx-c6P5dy-242" value="&lt;font style=&quot;color: rgb(32, 162, 162);&quot;&gt;修改&lt;/font&gt;" style="rounded=0;whiteSpace=wrap;html=1;" parent="1" vertex="1">
          <mxGeometry x="1130" y="287" width="150" height="46" as="geometry" />
        </mxCell>
        <mxCell id="wSN1zOAFKdJWx-c6P5dy-243" value="&lt;font style=&quot;color: rgb(32, 162, 162);&quot;&gt;修改&lt;/font&gt;" style="rounded=0;whiteSpace=wrap;html=1;" parent="1" vertex="1">
          <mxGeometry x="1130" y="333" width="150" height="47" as="geometry" />
        </mxCell>
        <mxCell id="1Bk3tq4zc7lWHgRg1fFd-1" value="新增" style="rounded=1;fillColor=#0057D8;strokeColor=none;html=1;whiteSpace=wrap;fontColor=#ffffff;align=center;verticalAlign=middle;fontStyle=0;fontSize=12;sketch=0;" vertex="1" parent="1">
          <mxGeometry x="150" y="180" width="86" height="33" as="geometry" />
        </mxCell>
        <mxCell id="1Bk3tq4zc7lWHgRg1fFd-4" value="批量删除" style="rounded=1;fillColor=#D80000;strokeColor=none;html=1;whiteSpace=wrap;fontColor=#ffffff;align=center;verticalAlign=middle;fontStyle=0;fontSize=12;sketch=0;" vertex="1" parent="1">
          <mxGeometry x="260" y="180" width="86" height="33" as="geometry" />
        </mxCell>
        <mxCell id="1Bk3tq4zc7lWHgRg1fFd-5" value="" style="endArrow=classic;html=1;rounded=0;entryX=0.5;entryY=0;entryDx=0;entryDy=0;exitX=0;exitY=0.5;exitDx=0;exitDy=0;" edge="1" parent="1" source="1Bk3tq4zc7lWHgRg1fFd-1" target="wSN1zOAFKdJWx-c6P5dy-1">
          <mxGeometry width="50" height="50" relative="1" as="geometry">
            <mxPoint x="150" y="210" as="sourcePoint" />
            <mxPoint x="200" y="160" as="targetPoint" />
            <Array as="points">
              <mxPoint x="120" y="197" />
              <mxPoint x="120" y="780" />
              <mxPoint x="610" y="780" />
            </Array>
          </mxGeometry>
        </mxCell>
      </root>
    </mxGraphModel>
  </diagram>
</mxfile>
